<svg width="1440" height="790" viewBox="0 0 1440 790" fill="none" xmlns="http://www.w3.org/2000/svg">
<g clip-path="url(#clip0_1130_201)">
<line y1="-1" x2="1185.1" y2="-1" transform="matrix(-0.648049 0.761599 -0.840991 -0.54105 1118.38 -58.5674)" stroke="#1B1716" stroke-opacity="0.6" stroke-width="2"/>
<line y1="-1" x2="1185.1" y2="-1" transform="matrix(-0.648049 0.761599 -0.840991 -0.54105 1202.38 -64.6543)" stroke="#1B1716" stroke-opacity="0.6" stroke-width="2"/>
<line y1="-1" x2="1185.1" y2="-1" transform="matrix(-0.648049 0.761599 -0.840991 -0.54105 1286.38 -70.7407)" stroke="#1B1716" stroke-opacity="0.6" stroke-width="2"/>
<line y1="-1" x2="1185.1" y2="-1" transform="matrix(-0.648049 0.761599 -0.840991 -0.54105 1370.38 -76.8276)" stroke="#1B1716" stroke-opacity="0.6" stroke-width="2"/>
<line y1="-1" x2="1185.1" y2="-1" transform="matrix(-0.648049 0.761599 -0.840991 -0.54105 1454.38 -82.9141)" stroke="#1B1716" stroke-opacity="0.6" stroke-width="2"/>
<line y1="-1" x2="1185.1" y2="-1" transform="matrix(-0.648049 0.761599 -0.840991 -0.54105 1538.38 -89.001)" stroke="#1B1716" stroke-opacity="0.6" stroke-width="2"/>
<line y1="-1" x2="1185.1" y2="-1" transform="matrix(-0.648049 0.761599 -0.840991 -0.54105 1622.38 -95.0879)" stroke="#1B1716" stroke-opacity="0.6" stroke-width="2"/>
<line y1="-1" x2="1185.1" y2="-1" transform="matrix(-0.648049 0.761599 -0.840991 -0.54105 1706.38 -101.174)" stroke="#1B1716" stroke-opacity="0.6" stroke-width="2"/>
<path d="M1303.34 374.456H1280.79C1279.89 374.456 1279.05 374.855 1278.48 375.545L1243.95 417.335C1243.03 418.44 1243.03 420.036 1243.94 421.146L1278.47 463.352C1279.04 464.048 1279.9 464.452 1280.8 464.452H1303.38C1305.94 464.452 1307.32 461.455 1305.66 459.507L1273.04 421.191C1272.08 420.066 1272.09 418.411 1273.05 417.29L1305.61 379.412C1307.29 377.467 1305.9 374.456 1303.34 374.456Z" stroke="white" stroke-width="4"/>
<path d="M1347.34 374.456H1324.79C1323.89 374.456 1323.05 374.855 1322.48 375.545L1287.95 417.335C1287.03 418.44 1287.03 420.036 1287.94 421.146L1322.47 463.352C1323.04 464.048 1323.9 464.452 1324.8 464.452H1347.38C1349.94 464.452 1351.32 461.455 1349.66 459.507L1317.04 421.191C1316.08 420.066 1316.09 418.411 1317.05 417.29L1349.61 379.412C1351.29 377.467 1349.9 374.456 1347.34 374.456Z" stroke="white" stroke-width="4"/>
<path d="M1391.34 374.456H1368.79C1367.89 374.456 1367.05 374.855 1366.48 375.545L1331.95 417.335C1331.03 418.44 1331.03 420.036 1331.94 421.146L1366.47 463.352C1367.04 464.048 1367.9 464.452 1368.8 464.452H1391.38C1393.94 464.452 1395.32 461.455 1393.66 459.507L1361.04 421.191C1360.08 420.066 1360.09 418.411 1361.05 417.29L1393.61 379.412C1395.29 377.467 1393.9 374.456 1391.34 374.456Z" stroke="white" stroke-width="4"/>
<path d="M1435.34 374.456H1412.79C1411.89 374.456 1411.05 374.855 1410.48 375.545L1375.95 417.335C1375.03 418.44 1375.03 420.036 1375.94 421.146L1410.47 463.352C1411.04 464.048 1411.9 464.452 1412.8 464.452H1435.38C1437.94 464.452 1439.32 461.455 1437.66 459.507L1405.04 421.191C1404.08 420.066 1404.09 418.411 1405.05 417.29L1437.61 379.412C1439.29 377.467 1437.9 374.456 1435.34 374.456Z" stroke="white" stroke-width="4"/>
<path d="M1479.34 374.456H1456.79C1455.89 374.456 1455.05 374.855 1454.48 375.545L1419.95 417.335C1419.03 418.44 1419.03 420.036 1419.94 421.146L1454.47 463.352C1455.04 464.048 1455.9 464.452 1456.8 464.452H1479.38C1481.94 464.452 1483.32 461.455 1481.66 459.507L1449.04 421.191C1448.08 420.066 1448.09 418.411 1449.05 417.29L1481.61 379.412C1483.29 377.467 1481.9 374.456 1479.34 374.456Z" stroke="white" stroke-width="4"/>
<path d="M594.375 359.239L915.375 -14.2222H861.875L540.875 359.239L902.375 787.915H956.875L594.375 359.239Z" fill="#ED1B24" stroke="#ED1B24"/>
<path d="M504.875 358.37L824.375 -13.7871H552.875L232.375 358.37L594.875 787.046H866.375L504.875 358.37Z" fill="#ED1B24" stroke="#ED1B24"/>
<path d="M657.481 70.5566H613.299C612.398 70.5566 611.544 70.9617 610.975 71.6597L558.423 136.048C557.522 137.152 557.522 138.738 558.423 139.842L610.975 204.23C611.544 204.928 612.398 205.333 613.299 205.333H657.481C660.023 205.333 661.413 202.37 659.789 200.416L609.468 139.862C608.545 138.751 608.545 137.139 609.468 136.027L659.789 75.474C661.413 73.5193 660.023 70.5566 657.481 70.5566Z" stroke="white" stroke-width="4"/>
<path d="M757.481 70.5566H713.299C712.398 70.5566 711.544 70.9617 710.975 71.6597L658.423 136.048C657.522 137.152 657.522 138.738 658.423 139.842L710.975 204.23C711.544 204.928 712.398 205.333 713.299 205.333H757.481C760.023 205.333 761.413 202.37 759.789 200.416L709.468 139.862C708.545 138.751 708.545 137.139 709.468 136.027L759.789 75.474C761.413 73.5193 760.023 70.5566 757.481 70.5566Z" stroke="white" stroke-width="4"/>
<path d="M857.481 70.5566H813.299C812.398 70.5566 811.544 70.9617 810.975 71.6597L758.423 136.048C757.522 137.152 757.522 138.738 758.423 139.842L810.975 204.23C811.544 204.928 812.398 205.333 813.299 205.333H857.481C860.023 205.333 861.413 202.37 859.789 200.416L809.468 139.862C808.545 138.751 808.545 137.139 809.468 136.027L859.789 75.474C861.413 73.5193 860.023 70.5566 857.481 70.5566Z" stroke="white" stroke-width="4"/>
<path d="M957.481 70.5566H913.299C912.398 70.5566 911.544 70.9617 910.975 71.6597L858.423 136.048C857.522 137.152 857.522 138.738 858.423 139.842L910.975 204.23C911.544 204.928 912.398 205.333 913.299 205.333H957.481C960.023 205.333 961.413 202.37 959.789 200.416L909.468 139.862C908.545 138.751 908.545 137.139 909.468 136.027L959.789 75.474C961.413 73.5193 960.023 70.5566 957.481 70.5566Z" stroke="white" stroke-width="4"/>
<path d="M1198.38 -109H1147.38L1093.38 -43.3508L1147.38 18.3855H1198.38L1143.88 -46.3942L1198.38 -109Z" fill="#1B1716" stroke="#1B1716" stroke-width="2"/>
<path d="M1278.38 -109H1227.38L1173.38 -43.3508L1227.38 18.3855H1278.38L1223.88 -46.3942L1278.38 -109Z" fill="#1B1716" stroke="#1B1716" stroke-width="2"/>
<path d="M1358.38 -109H1307.38L1253.38 -43.3508L1307.38 18.3855H1358.38L1303.88 -46.3942L1358.38 -109Z" fill="#1B1716" stroke="#1B1716" stroke-width="2"/>
<path d="M1438.38 -109H1387.38L1333.38 -43.3508L1387.38 18.3855H1438.38L1383.88 -46.3942L1438.38 -109Z" fill="#1B1716" stroke="#1B1716" stroke-width="2"/>
<path d="M0.125 -13H561.125L265.125 360.214L609.125 786H0.125V-13Z" fill="#1B1716" stroke="#1B1716" stroke-width="2"/>
<g filter="url(#filter0_f_1130_201)">
<path d="M281.043 -14H303.573L-19.8452 362.467L344.125 788H325.601L-42.875 362.467L281.043 -14Z" stroke="white" stroke-width="2"/>
</g>
<g filter="url(#filter1_f_1130_201)">
<path d="M83.0435 -14H105.573L-217.845 362.467L146.125 788H127.601L-240.875 362.467L83.0435 -14Z" fill="#D9D9D9"/>
<path d="M83.0435 -14H105.573L-217.845 362.467L146.125 788H127.601L-240.875 362.467L83.0435 -14Z" stroke="white" stroke-width="2"/>
</g>
<path d="M118.875 146.64H81.875L45.875 177.943H81.875L118.875 146.64Z" fill="white" stroke="white" stroke-width="2"/>
<path d="M173.875 146.64H136.875L100.875 177.943H136.875L173.875 146.64Z" fill="white" stroke="white" stroke-width="2"/>
<path d="M228.875 146.64H191.875L155.875 177.943H191.875L228.875 146.64Z" fill="white" stroke="white" stroke-width="2"/>
<path d="M283.875 146.64H246.875L210.875 177.943H246.875L283.875 146.64Z" fill="white" stroke="white" stroke-width="2"/>
<path d="M125.875 680.964H74.875L20.875 746.613L74.875 808.349H125.875L71.375 743.57L125.875 680.964Z" fill="#EF1C22" stroke="#E32024" stroke-width="2"/>
<path d="M205.875 680.964H154.875L100.875 746.613L154.875 808.349H205.875L151.375 743.57L205.875 680.964Z" fill="#EF1C22" stroke="#E32024" stroke-width="2"/>
<path d="M285.875 680.964H234.875L180.875 746.613L234.875 808.349H285.875L231.375 743.57L285.875 680.964Z" fill="#EF1C22" stroke="#E32024" stroke-width="2"/>
<path d="M365.875 680.964H314.875L260.875 746.613L314.875 808.349H365.875L311.375 743.57L365.875 680.964Z" fill="#EF1C22" stroke="#E32024" stroke-width="2"/>
<path d="M837.875 645.313H800.875L732.375 707.05H769.875L837.875 645.313Z" fill="white" stroke="white" stroke-width="2"/>
<path d="M897.875 645.313H860.875L792.375 707.05H829.875L897.875 645.313Z" fill="white" stroke="white" stroke-width="2"/>
<path d="M957.875 645.313H920.875L852.375 707.05H889.875L957.875 645.313Z" fill="white" stroke="white" stroke-width="2"/>
<path d="M1017.88 645.313H980.875L912.375 707.05H949.875L1017.88 645.313Z" fill="white" stroke="white" stroke-width="2"/>
<path d="M1077.88 645.313H1040.88L972.375 707.05H1009.88L1077.88 645.313Z" fill="white" stroke="white" stroke-width="2"/>
<path d="M1435.38 611.402L1393.88 573.143H1360.38L1403.88 611.402H1435.38Z" fill="#F81A27"/>
<path d="M1382.88 611.402L1342.38 573.143H1311.38L1351.88 611.402H1382.88Z" fill="#F81A27"/>
<path d="M1329.38 611.402L1291.38 578.794H1266.88L1301.88 611.402H1329.38Z" fill="#F81A27"/>
<path d="M1276.88 611.402L1242.88 578.794H1214.88L1252.38 611.402H1276.88Z" fill="#F81A27"/>
<path d="M1224.88 611.402L1188.38 578.794H1165.88L1198.88 611.402H1224.88Z" fill="#F81A27"/>
<path d="M1435.38 611.402L1393.88 573.143H1360.38L1403.88 611.402H1435.38Z" stroke="#F81A27" stroke-width="2"/>
<path d="M1382.88 611.402L1342.38 573.143H1311.38L1351.88 611.402H1382.88Z" stroke="#F81A27" stroke-width="2"/>
<path d="M1329.38 611.402L1291.38 578.794H1266.88L1301.88 611.402H1329.38Z" stroke="#F81A27" stroke-width="2"/>
<path d="M1276.88 611.402L1242.88 578.794H1214.88L1252.38 611.402H1276.88Z" stroke="#F81A27" stroke-width="2"/>
<path d="M1224.88 611.402L1188.38 578.794H1165.88L1198.88 611.402H1224.88Z" stroke="#F81A27" stroke-width="2"/>
<path d="M1439.38 600.968L1408.88 572.708H1439.38V600.968Z" fill="#F81A27" stroke="#F81A27" stroke-width="2"/>
</g>
<defs>
<filter id="filter0_f_1130_201" x="-46.1953" y="-17" width="394.492" height="808" filterUnits="userSpaceOnUse" color-interpolation-filters="sRGB">
<feFlood flood-opacity="0" result="BackgroundImageFix"/>
<feBlend mode="normal" in="SourceGraphic" in2="BackgroundImageFix" result="shape"/>
<feGaussianBlur stdDeviation="1" result="effect1_foregroundBlur_1130_201"/>
</filter>
<filter id="filter1_f_1130_201" x="-244.195" y="-17" width="394.492" height="808" filterUnits="userSpaceOnUse" color-interpolation-filters="sRGB">
<feFlood flood-opacity="0" result="BackgroundImageFix"/>
<feBlend mode="normal" in="SourceGraphic" in2="BackgroundImageFix" result="shape"/>
<feGaussianBlur stdDeviation="1" result="effect1_foregroundBlur_1130_201"/>
</filter>
<clipPath id="clip0_1130_201">
<rect width="1440" height="790" fill="white"/>
</clipPath>
</defs>
</svg>
